<svg
   xmlns="http://www.w3.org/2000/svg"
   width="92.954987mm"
   height="95.555138mm"
   viewBox="0 0 92.954987 95.555139">
  <g transform="translate(-54.576567,-40.950365)">
    <g transform="translate(-1.0690781,-12.027129)">
      <g>
        <path
           style="fill:#684100;stroke:none"
           d="m 67.752827,82.583011 c 1.60361,2.004523 2.20497,8.285355 3.00678,9.822156 0.80181,1.5368 2.40542,3.474503 3.14042,6.414468 0.73499,2.939965 4.54358,8.485805 4.54358,8.485805 0,0 5.21175,6.54811 6.74855,8.15172 1.5368,1.60362 4.020451,4.36419 5.7463,7.55037 2.605881,4.81085 1.469977,25.3906 1.469977,25.3906 l 9.571596,-0.0501 c 0,0 -1.38548,-25.40788 0.51645,-26.59046 1.44763,-1.23652 10.82441,-9.88897 11.75985,-10.22305 0.93545,-0.33409 3.14042,-3.60814 3.40769,-4.2095 0.26727,-0.60136 5.74769,-2.69226 5.74769,-2.69226 -3.40487,-8.09149 -0.80724,-13.534165 -0.40091,-18.90932 -7.48355,-7.951269 -8.58316,-9.557953 -7.88445,6.214014 -0.4009,0.467723 0.46772,2.33861 0.0668,3.207234 -0.40091,0.868627 -0.0668,3.808593 -0.0668,3.808593 0,0 -0.40645,4.890809 -7.88445,10.557149 -0.84939,0.64361 -2.93637,4.10492 -4.67722,4.40994 -1.40467,-15.211903 21.55329,-41.300875 8.92011,-40.324287 -4.96463,2.258944 -12.350143,2.559688 -13.931443,0.30068 -0.78664,3.706265 3.921563,4.802413 -0.66817,11.960308 -0.98414,0.236838 -1.4239,-0.461955 -2.13816,-1.069076 0,0 -0.5365,-7.187447 -4.52957,-4.03197 -4.06414,0.751701 -2.05745,2.98412 0.18644,7.372838 l -0.26727,-0.06682 1.00226,1.870887 -0.4009,0.601355 1.40316,0.80181 c 0,0 0.60136,0 0.66817,1.937705 0.0668,1.937702 1.67044,0.400904 2.2718,3.207234 0.60135,2.80633 -1.03299,7.854136 -1.04477,11.826676 -0.006,2.08577 0.30977,6.21402 0.30977,6.21402 0,0 -4.74403,-3.20724 -6.5481,-6.48129 -1.80407,-3.27405 -8.15172,-11.626224 -7.75081,-13.76438 0.4009,-2.138156 -1.93771,-9.755338 -1.73726,-12.762121 -0.5819,-7.86678 -14.89208,-5.110377 -10.55711,1.069082 z"/>
        <path
           style="fill:#689600;stroke:none"
           d="m 66.149207,78.640785 -1.36976,0.668176 -0.26727,-1.837478 -2.973368,-0.46772 1.670438,-1.336347 -4.543588,-1.63703 2.271789,-0.501126 -3.808587,-2.63929 2.472243,0.133638 -3.541321,-1.770663 2.572467,-0.46772 -2.131703,-3.944948 3.735321,1.907019 0.894887,-2.80471 1.644172,2.303576 1.40317,-2.305201 0.83521,2.973377 1.31462,-1.152742 -0.8803,3.090447 2.29771,0.240467 -0.96136,-1.576819 1.57557,0.253902 -1.08668,-1.771763 0.98109,0.01447 -3.37428,-1.46998 1.87347,-0.387125 0.44885,-2.834822 1.88717,3.188538 0.16705,-3.006786 2.40542,2.238383 0.28869,-1.569688 0.78039,0.767879 -0.0717,-4.453146 1.17418,2.916348 2.03862,-0.530375 -0.70227,1.298776 1.55272,-1.038916 1.08656,1.67368 0.40091,-1.570207 -2.20498,-1.570212 2.44202,-0.305025 -1.6068,-1.666084 2.05565,-0.554527 -1.2993,-2.338728 2.35064,1.022366 1.83748,-2.57247 1.00226,2.472243 3.57395,-0.945761 -1.73647,1.680752 3.14041,0.06682 -2.40542,1.904296 2.75623,-0.534543 -1.52011,2.53906 1.30294,0.501134 -2.13816,2.906554 1.62034,-0.601358 -1.95441,2.037932 1.46997,0.167045 0.95217,-1.653734 0.28395,1.854187 0.70158,-1.035672 2.52238,0.384199 -3.15714,-1.954405 2.02124,-0.517838 -2.55578,-2.923256 1.68716,0.267266 0.21713,-1.904294 1.01899,1.620319 0.51781,-3.090301 1.23612,2.405425 1.60362,-3.173826 0.60136,2.238383 2.30522,-3.207237 0.73499,3.775181 3.441093,-2.188268 -1.336373,4.593698 1.804073,0.534538 -1.20271,2.605879 2.25511,-1.169308 -1.1359,-3.758477 3.14042,2.321904 2.65599,-4.242904 0.16702,3.708368 1.73726,-3.340869 3.00678,2.271791 2.80633,-2.53906 0.13363,2.53906 2.40543,-1.804069 -0.40091,2.873147 3.14042,-1.937705 -1.20271,2.672697 2.20497,0.334087 -2.20497,1.870887 3.24066,-0.734994 -2.03795,2.605878 2.9734,0.334084 -1.8375,2.939968 2.43885,-2.472245 0.56795,3.474506 0.93544,-3.608137 1.20271,3.340868 1.5368,-2.639288 0.13364,2.906557 2.33861,-1.202714 -1.60362,3.073601 3.0736,-0.03341 -2.60588,2.772926 2.33861,-0.400907 -2.47224,3.073601 3.50791,-2.171568 -0.63476,2.706108 3.107,-1.202716 -2.23838,2.271794 2.33861,0.334087 -3.47451,0.801809 2.70611,1.904291 -4.64381,-0.100221 1.30294,2.47224 -1.70384,-0.935442 0.23386,2.572467 -2.17157,-1.70384 -0.46678,3.548882 -2.60682,-2.947527 -0.86583,2.664045 -0.59503,-2.10979 -2.6414,2.416894 0.62776,-3.037969 -2.683,2.305642 0.61166,-3.508356 -1.62747,2.114568 -1.51295,-3.785002 0.96961,4.871683 -1.57096,-1.798084 0.1063,3.99507 -2.37809,-0.921469 1.76388,2.976716 -3.90204,-1.506734 0.92548,3.750966 -1.96076,-1.771763 0.16537,4.299479 -2.53778,-2.536907 -0.48603,2.891261 -0.51359,-2.598772 0.26463,-1.428385 8.48581,-15.100729 -2.14198,1.646487 1.34017,-3.784643 -1.00228,1.069078 -2.5585,-0.662598 1.62306,2.266214 -2.80633,-0.734991 -0.23415,3.595079 -2.57219,-2.926903 -1.63279,3.848222 -1.17354,-4.048676 -2.39361,2.702134 -1.01408,-3.904845 -1.277403,1.944095 -1.72938,-4.149069 0.66817,4.276312 -3.00203,0.463344 3.33612,0.806183 -2.55655,2.02864 2.42292,1.245412 -2.28118,-0.01699 0.74438,3.157407 -1.54758,-1.669126 -1.19191,1.602311 -0.4009,-4.57699 -0.90204,1.837478 -1.00226,-2.839738 -0.16704,4.844261 -3.17383,-1.937705 2.60588,5.345391 -2.53906,-0.835224 -0.0668,3.374284 -2.7061,-2.973379 -1.50339,3.708371 -0.43432,-2.973375 -3.24064,-0.601355 2.70611,-1.536801 -3.57473,-1.603616 3.57473,-1.30294 -1.93771,-2.572475 3.67496,0.434319 -1.80407,-2.906557 3.37428,1.102487 -1.06908,-1.870887 3.94223,-0.534538 -1.97112,-2.40543 2.6727,-2.772923 -2.6727,-2.305193 1.50339,-1.837483 -1.33634,-0.902036 0.50113,0.835218 -5.61266,-0.501129 3.67495,2.706103 -3.17383,0.734991 1.9043,2.305206 -3.60814,0.534538 2.23839,3.073598 -4.54359,-0.267269 0.96886,3.207234 -3.80859,-1.369755 0.0668,3.54132 -4.27634,-2.906561 -1.50336,3.17383 -2.77292,-3.741772 -1.57021,3.507912 z"/>
        <path
           style="fill:#689600;stroke:none"
           d="m 122.34263,88.529759 -3.54688,0.123018 2.27735,2.75013 -3.17504,-0.0098 3.54352,2.83482 -4.17707,1.451292 3.77547,0.816565 -4.74832,2.173365 4.65383,0.661458 -3.33092,4.346723 4.32715,-1.85091 0.23219,3.1502 2.50409,-2.83482 2.29149,3.54353 0.92131,-3.85063 2.13581,1.8626 0.95887,-3.42176 5.69327,1.88989 -2.37581,-3.679884 4.07586,2.338614 -0.82598,-2.792848 6.49646,2.669458 -1.70089,-2.433222 4.55934,-1.110305 -4.67746,-1.039434 2.29573,-0.171321 -2.60283,-2.285526 4.29948,1.937128 -2.03074,-2.992472 3.0736,1.002263 -2.15317,-2.828986 3.02381,-0.874069 -3.63802,-1.110306 1.53553,-2.220611 -4.24717,1.220859 -0.43029,-3.677703 -1.74814,3.590772 -1.77176,-2.551337 -1.27567,3.708889 -2.38597,-2.858445 -0.63784,3.543528 -2.22061,-2.55134 -0.54334,3.165552 -2.24423,-1.748139 -1.06306,2.551337 -0.96857,-1.535528 -2.43322,2.031622 0.11812,-2.882067 -1.88988,1.677268 z"/>
      </g>
    </g>
  </g>
</svg>